<svg xmlns="http://www.w3.org/2000/svg" xmlns:xlink="http://www.w3.org/1999/xlink" width="100" zoomAndPan="magnify" viewBox="0 0 75 74.999997" height="100" preserveAspectRatio="xMidYMid meet" version="1.2"><defs><clipPath id="fd5e1923cf"><path d="M 8 7.5 L 67.5 7.5 L 67.5 66.75 L 8 66.75 Z M 8 7.5 "/></clipPath></defs><g id="ae36487b74"><rect x="0" width="75" y="0" height="74.999997" style="fill:#ffffff;fill-opacity:1;stroke:none;"/><rect x="0" width="75" y="0" height="74.999997" style="fill:#4b679d;fill-opacity:1;stroke:none;"/><g clip-rule="nonzero" clip-path="url(#fd5e1923cf)"><path style=" stroke:none;fill-rule:nonzero;fill:#ffffff;fill-opacity:1;" d="M 66.847656 52.28125 C 66.585938 51.347656 65.835938 50.625 64.890625 50.394531 C 60.828125 49.410156 56.335938 47.410156 51.898438 44.613281 C 51.101562 44.109375 50.089844 44.054688 49.253906 44.46875 C 48.042969 45.070312 46.9375 45.863281 45.96875 46.832031 C 44.773438 48.027344 43.851562 49.410156 43.226562 50.953125 C 39.570312 48.503906 36.035156 45.582031 32.714844 42.261719 C 29.394531 38.9375 26.476562 35.402344 24.027344 31.746094 C 25.570312 31.117188 26.957031 30.199219 28.152344 29.003906 C 29.121094 28.039062 29.914062 26.933594 30.515625 25.722656 C 30.929688 24.886719 30.875 23.871094 30.375 23.074219 C 27.578125 18.636719 25.582031 14.144531 24.597656 10.082031 C 24.371094 9.136719 23.648438 8.386719 22.714844 8.121094 C 20.652344 7.539062 18.464844 7.5 16.382812 8 C 14.460938 8.460938 12.652344 9.386719 11.101562 10.730469 C 7.761719 14.675781 7.515625 21.125 10.410156 28.882812 C 13.0625 36.003906 18.164062 43.570312 24.78125 50.191406 C 31.398438 56.808594 38.964844 61.917969 46.082031 64.574219 C 49.675781 65.917969 52.980469 66.582031 55.894531 66.582031 C 59.269531 66.582031 62.113281 65.683594 64.234375 63.890625 L 64.285156 63.839844 C 65.578125 62.339844 66.507812 60.53125 66.96875 58.609375 C 67.46875 56.527344 67.429688 54.339844 66.847656 52.28125 "/></g></g></svg>